<svg width="269" height="268" viewBox="0 0 269 268" fill="none" xmlns="http://www.w3.org/2000/svg">
<circle cx="134.742" cy="133.753" r="133.753" fill="url(#paint0_linear_71_1008)"/>
<path d="M96.115 202.822L104.867 201.547L104.146 196.589L114.434 195.092C118.415 194.518 122.111 197.269 122.685 201.25L122.845 202.33C182.441 191.994 185.499 124.995 178.219 99.612C183.408 116.679 193.464 165.862 159.424 192.507C190.516 147.243 196.379 102.262 184.79 77.618C218.238 147.583 162.24 204.024 130.354 211.335C130.225 211.376 130.093 211.404 129.982 211.413C129.193 211.595 128.443 211.747 127.701 211.883C126.587 212.065 125.456 212.237 124.31 212.401L124.487 213.597C125.06 217.577 122.31 221.274 118.329 221.848L108.037 223.352L107.239 217.879L98.4926 219.152C97.9646 219.229 97.4523 219.118 97.0241 218.868C96.4464 218.532 96.0215 217.945 95.9179 217.232C95.7371 215.99 96.597 214.838 97.8378 214.657L106.586 213.384L105.52 206.042L96.7693 207.316C96.2413 207.392 95.7293 207.281 95.301 207.032C94.7233 206.696 94.2986 206.109 94.1948 205.396C94.0142 204.155 94.8739 203.003 96.115 202.822Z" fill="white"/>
<mask id="mask0_71_1008" style="mask-type:luminance" maskUnits="userSpaceOnUse" x="63" y="27" width="113" height="176">
<path d="M100.993 110.089C97.5614 122.887 93.6181 133.516 89.1642 141.971C84.8366 150.187 80.0684 156.272 74.8613 160.226L74.6509 160.406C65.4986 168.565 61.9795 176.881 64.0967 185.339C65.571 191.236 70.1357 197.065 76.2251 202.267C76.4129 199.223 76.7114 196.185 77.1198 193.162C73.8634 189.928 71.8401 186.736 71.0523 183.586C69.6496 177.978 72.3966 172.076 79.2916 165.885C85.3254 161.279 90.7399 154.427 95.5316 145.33C100.218 136.433 104.352 125.308 107.93 111.961L107.925 111.949C109.945 104.376 113.854 97.5644 118.985 91.9434C124.749 85.6242 132.038 80.8342 139.913 78.1681C147.625 75.5584 155.876 74.9879 163.758 77.0213L162.083 81.9467L162.003 82.2054C159.16 81.7314 156.946 82.0959 156.524 83.2785C155.946 84.9163 159.011 87.4964 163.374 89.0459C167.738 90.593 171.746 90.5202 172.327 88.8856C172.745 87.7022 171.256 86.0243 168.747 84.5995L168.87 84.292L170.465 79.5927L172.652 72.5575C176.873 57.7884 176.891 47.6978 170.938 29.8648C170.307 27.9806 168.265 26.9624 166.381 27.5939C164.496 28.2238 163.478 30.2672 164.11 32.1515C169.537 48.408 169.583 57.1613 165.886 70.1751C156.459 67.6651 146.671 68.2864 137.599 71.358C128.584 74.4101 120.25 79.8792 113.675 87.0891C107.817 93.51 103.339 101.339 100.991 110.097" fill="white"/>
</mask>
<g mask="url(#mask0_71_1008)">
<path d="M70.8976 209.388L165.153 97.0952L180.759 74.7673L157.924 67.8304L121.807 80.8041L34.2426 122.696L70.8976 209.388Z" fill="white"/>
</g>
<path d="M147.533 63.0747C140.854 64.1292 134.819 59.7345 133.766 53.0653C132.772 46.7699 137.485 40.5016 144.145 39.6122C151.556 38.6189 156.984 43.743 157.822 49.6211C158.752 56.0886 154.273 62.0254 147.533 63.0747Z" fill="white"/>
<path d="M110.545 95.5665C110.717 92.0816 112.052 89.1948 114.136 86.6709C117.522 82.5734 121.862 79.6632 126.667 77.5968C134.559 74.216 142.569 71.1023 150.555 67.9323C155.848 65.8187 161.147 63.7345 165.775 60.2676C173.621 54.3986 176.403 46.2922 173.634 36.8522C172.915 34.395 172.022 31.9802 171.058 29.1107C172.551 30.7542 173.854 32.0518 174.998 33.4799C182.383 42.6121 184.283 53.031 182.178 64.383C180.633 72.7001 177.591 80.5017 173.578 87.8703C168.952 96.4031 163.964 104.738 159.157 113.179C152.678 124.56 146.587 136.105 142.943 148.767C141.149 155.034 140.077 161.397 140.235 167.927C140.356 172.884 141.355 177.687 143.083 182.345C143.193 182.659 143.276 182.992 143.356 183.31C143.219 183.392 143.096 183.471 142.958 183.553C141.299 181.334 139.529 179.178 138.005 176.863C133.076 169.373 130.881 161 130.338 152.125C129.622 140.632 131.812 129.538 134.94 118.565C136.412 113.402 137.896 108.221 139.039 102.975C139.843 99.2998 140.096 95.4714 138.941 91.7751C137.17 86.0863 132.924 84.0656 127.172 85.8457C121.475 87.6019 116.682 90.8843 112.004 94.4191C111.507 94.7982 111.01 95.1773 110.499 95.5587L110.545 95.5665Z" fill="white"/>
<defs>
<linearGradient id="paint0_linear_71_1008" x1="136.479" y1="-92.0636" x2="136.479" y2="416.892" gradientUnits="userSpaceOnUse">
<stop stop-color="#39B54A"/>
<stop offset="1" stop-color="#413BFB"/>
</linearGradient>
</defs>
</svg>
